<?xml version="1.0" standalone="no"?>
<!DOCTYPE svg PUBLIC "-//W3C//DTD SVG 20010904//EN"
 "http://www.w3.org/TR/2001/REC-SVG-20010904/DTD/svg10.dtd">
<svg version="1.0" xmlns="http://www.w3.org/2000/svg"
 width="681.000000pt" height="187.000000pt" viewBox="0 0 681.000000 187.000000"
 preserveAspectRatio="xMidYMid meet">

<g transform="translate(0.000000,187.000000) scale(0.100000,-0.100000)"
fill="#000000" stroke="none">
<path d="M3816 1564 c-32 -33 -34 -81 -5 -118 18 -23 28 -26 78 -26 63 0 84
13 96 60 7 31 -9 78 -33 96 -9 8 -38 14 -63 14 -37 0 -52 -5 -73 -26z"/>
<path d="M4899 1577 c-42 -32 -50 -90 -18 -131 18 -23 28 -26 78 -26 73 0 94
19 94 86 0 37 -4 50 -24 65 -28 21 -105 25 -130 6z"/>
<path d="M3127 1534 c-4 -4 -7 -198 -7 -431 l0 -423 270 0 270 0 0 70 0 70
-175 0 -175 0 -2 358 -3 357 -85 3 c-47 1 -89 0 -93 -4z"/>
<path d="M360 1340 c-8 -5 -29 -10 -46 -10 -36 0 -101 -43 -129 -86 -24 -36
-26 -129 -5 -170 27 -52 57 -72 225 -150 84 -39 101 -66 70 -108 -20 -26 -150
-25 -235 3 -34 12 -66 18 -71 15 -5 -3 -9 -31 -9 -63 0 -67 18 -91 68 -91 18
0 32 -4 32 -10 0 -6 45 -10 114 -10 66 0 117 4 121 10 3 6 15 10 26 10 34 0
99 50 127 98 14 26 17 172 2 172 -5 0 -10 6 -10 13 0 16 -42 57 -58 57 -7 0
-12 5 -12 10 0 6 -5 10 -10 10 -6 0 -33 11 -62 25 -28 14 -58 25 -65 25 -7 0
-13 5 -13 10 0 6 -9 10 -19 10 -11 0 -29 12 -40 27 -19 23 -20 29 -8 47 11 16
27 22 63 24 46 3 145 -20 170 -39 7 -6 19 7 34 39 12 26 26 55 31 65 8 15 3
21 -28 34 -70 30 -237 51 -263 33z"/>
<path d="M1017 1344 c-4 -4 -29 -11 -55 -15 -57 -9 -127 -34 -127 -46 0 -4 11
-32 25 -61 24 -50 27 -52 55 -46 17 3 45 13 64 20 52 22 143 18 169 -6 22 -21
39 -81 27 -99 -3 -6 -33 -11 -66 -11 -73 0 -200 -18 -213 -31 -6 -5 -17 -9
-25 -9 -28 0 -86 -75 -98 -126 -12 -50 0 -123 26 -173 14 -25 64 -61 85 -61 9
0 16 -4 16 -10 0 -6 33 -10 79 -10 44 0 83 5 86 10 3 6 15 10 25 10 10 0 35
16 56 35 40 38 64 45 64 18 1 -39 24 -53 89 -53 l62 0 -3 258 c-3 249 -4 258
-27 298 -25 44 -81 83 -141 98 -51 12 -164 19 -173 10z m163 -409 c0 -89 -48
-136 -138 -136 -47 0 -59 3 -74 23 -28 37 -23 73 17 113 35 34 37 35 115 35
l80 0 0 -35z"/>
<path d="M1875 1340 c-3 -5 -17 -10 -31 -10 -28 0 -69 -24 -99 -57 -11 -13
-23 -23 -26 -23 -3 0 -12 18 -19 40 l-13 40 -69 0 -68 0 0 -325 0 -325 89 0
89 0 3 210 c3 150 8 213 17 222 6 6 12 18 12 26 0 22 38 51 76 58 43 8 87 -2
116 -27 23 -20 23 -24 26 -255 l4 -234 89 0 89 0 0 240 c0 164 -4 253 -12 281
-21 66 -89 129 -140 129 -15 0 -30 5 -33 10 -3 6 -26 10 -50 10 -24 0 -47 -4
-50 -10z"/>
<path d="M2580 1340 c-8 -5 -28 -10 -44 -10 -31 0 -109 -45 -142 -82 -33 -36
-64 -97 -64 -123 0 -13 -4 -27 -10 -30 -5 -3 -10 -44 -10 -90 0 -46 5 -87 10
-90 6 -3 10 -18 10 -32 0 -13 18 -53 41 -87 41 -62 51 -70 171 -128 25 -11
176 -10 183 2 3 6 15 10 25 10 21 0 80 31 80 43 0 4 5 7 11 7 23 0 70 68 96
140 15 41 17 232 3 258 -5 9 -16 34 -25 54 -20 44 -74 102 -118 125 -60 31
-191 51 -217 33z m98 -149 c67 -20 87 -65 86 -196 -1 -89 -4 -107 -23 -134
-39 -54 -104 -75 -154 -50 -36 19 -67 51 -67 71 0 10 -4 18 -10 18 -6 0 -10
42 -10 105 0 63 4 105 10 105 6 0 10 6 10 13 0 22 36 58 67 67 38 11 53 12 91
1z"/>
<path d="M5576 1341 c-4 -6 -18 -11 -32 -11 -32 0 -79 -25 -113 -58 -24 -24
-26 -25 -29 -7 -9 56 -22 65 -94 65 l-68 0 0 -325 0 -325 95 0 95 0 0 209 c0
129 4 212 10 216 6 3 10 15 10 25 0 39 88 80 143 66 13 -3 34 -15 48 -27 24
-21 24 -21 27 -255 l3 -234 96 0 95 0 -4 255 c-2 186 -6 257 -15 267 -7 6 -13
20 -13 30 0 10 -4 18 -10 18 -5 0 -10 7 -10 15 0 8 -4 15 -8 15 -5 0 -19 10
-31 22 -34 31 -182 61 -195 39z"/>
<path d="M6215 1340 c-11 -5 -31 -11 -45 -14 -28 -6 -100 -67 -100 -85 0 -6
-3 -11 -7 -11 -13 0 -40 -81 -52 -155 -21 -124 19 -282 88 -350 35 -35 50 -45
65 -45 8 0 18 -4 21 -10 3 -5 37 -10 76 -10 39 0 69 4 69 10 0 6 10 10 21 10
12 0 37 16 56 35 19 19 36 35 38 35 3 0 5 -31 5 -70 0 -40 -4 -70 -10 -70 -5
0 -10 -8 -10 -17 -1 -22 -23 -53 -38 -53 -6 0 -12 -6 -15 -12 -8 -26 -258 -6
-291 24 -27 23 -36 7 -36 -61 0 -68 0 -69 33 -82 22 -10 79 -14 193 -14 149 0
164 2 207 24 60 31 107 77 114 113 3 16 10 31 14 34 5 3 9 176 9 385 l0 379
-75 0 -75 0 0 -27 c0 -52 -13 -56 -52 -19 -20 19 -49 38 -65 41 -15 3 -36 10
-45 16 -21 11 -66 11 -93 -1z m149 -151 c44 -12 66 -30 66 -53 0 -9 5 -16 10
-16 6 0 10 -48 10 -125 0 -69 -4 -125 -9 -125 -5 0 -11 -8 -14 -19 -6 -24 -61
-51 -104 -51 -60 0 -95 30 -120 100 -15 42 -17 190 -3 190 6 0 10 10 10 23 1
29 33 67 67 77 38 11 43 11 87 -1z"/>
<path d="M3800 1005 l0 -325 90 0 90 0 0 325 0 325 -90 0 -90 0 0 -325z"/>
<path d="M4090 1311 c0 -11 6 -35 14 -53 8 -18 21 -49 29 -68 9 -19 25 -62 37
-95 12 -33 25 -69 30 -80 4 -11 14 -36 20 -55 16 -43 39 -100 50 -120 4 -9 11
-30 14 -48 4 -17 12 -34 17 -37 5 -4 9 -15 9 -26 0 -39 23 -49 118 -49 l90 0
12 33 c7 17 20 48 28 67 8 19 17 44 22 55 4 11 15 37 24 58 9 21 16 47 16 57
0 11 5 20 10 20 6 0 10 9 10 20 0 11 4 28 10 38 17 30 90 222 90 237 0 8 5 15
10 15 6 0 10 11 10 25 0 25 0 25 -95 25 -92 0 -95 -1 -95 -23 0 -13 -4 -27 -8
-32 -4 -6 -16 -37 -26 -70 -10 -33 -22 -68 -27 -77 -5 -10 -9 -25 -9 -33 0 -8
-4 -23 -9 -33 -13 -24 -47 -131 -66 -207 -1 -5 -8 18 -16 53 -7 34 -17 62 -21
62 -4 0 -8 8 -8 18 0 9 -11 49 -25 87 -13 39 -25 78 -25 88 0 9 -4 17 -10 17
-5 0 -10 8 -10 18 -1 9 -9 42 -20 72 l-19 55 -90 3 c-85 3 -91 2 -91 -17z"/>
<path d="M4870 1005 l0 -325 90 0 90 0 0 325 0 325 -90 0 -90 0 0 -325z"/>
<path d="M194 497 c-3 -8 -4 -47 -2 -88 l3 -74 275 0 275 0 3 65 c2 35 0 75
-3 87 l-5 23 -271 0 c-216 0 -271 -3 -275 -13z"/>
<path d="M2430 415 l0 -75 273 0 272 0 0 75 0 75 -272 0 -273 0 0 -75z"/>
</g>
</svg>
